<svg fill="#A65718" xmlns="http://www.w3.org/2000/svg" viewBox="0 0 48 48">
    <defs>
        <style>.cls-1{fill-opacity:0;opacity:0;}</style>
    </defs>
    <title>monitor</title>
    <g id="Camada_2" data-name="Camada 2">
        <g id="Ícones_Outline" data-name="Ícones Outline">
            <g id="monitor">
                <path d="M36,6H12a6,6,0,0,0-6,6V29a6,6,0,0,0,6,6h7a3,3,0,0,1-3,3h-.89A2.07,2.07,0,0,0,13,39.66,2,2,0,0,0,15,42H33a2,2,0,0,0,2-2.34A2.07,2.07,0,0,0,32.89,38H32a3,3,0,0,1-3-3h7a6,6,0,0,0,6-6V12A6,6,0,0,0,36,6Zm2,23a2,2,0,0,1-2,2H12a2,2,0,0,1-2-2V12a2,2,0,0,1,2-2H36a2,2,0,0,1,2,2Z"/>
                <rect class="cls-1" width="48" height="48"/>
            </g>
        </g>
    </g>
</svg>