<?xml version="1.0" encoding="UTF-8" standalone="no"?>
<!-- Created with Inkscape (http://www.inkscape.org/) -->

<svg
   xmlns:dc="http://purl.org/dc/elements/1.1/"
   xmlns:cc="http://creativecommons.org/ns#"
   xmlns:rdf="http://www.w3.org/1999/02/22-rdf-syntax-ns#"
   xmlns:svg="http://www.w3.org/2000/svg"
   xmlns="http://www.w3.org/2000/svg"
   xmlns:sodipodi="http://sodipodi.sourceforge.net/DTD/sodipodi-0.dtd"
   xmlns:inkscape="http://www.inkscape.org/namespaces/inkscape"
   width="7.0556326mm"
   height="7.3165531mm"
   viewBox="0 0 7.0556326 7.3165531"
   version="1.1"
   id="svg6748"
   inkscape:version="0.92.1 r15371"
   sodipodi:docname="libras.svg">
  <defs
     id="defs6742" />
  <sodipodi:namedview
     id="base"
     pagecolor="#ffffff"
     bordercolor="#666666"
     borderopacity="1.0"
     inkscape:pageopacity="0.0"
     inkscape:pageshadow="2"
     inkscape:zoom="11.2"
     inkscape:cx="25.799949"
     inkscape:cy="23.590487"
     inkscape:document-units="mm"
     inkscape:current-layer="layer1"
     showgrid="false"
     fit-margin-top="0"
     fit-margin-left="0"
     fit-margin-right="0"
     fit-margin-bottom="0"
     inkscape:window-width="1920"
     inkscape:window-height="1017"
     inkscape:window-x="-8"
     inkscape:window-y="-8"
     inkscape:window-maximized="1" />
  <metadata
     id="metadata6745">
    <rdf:RDF>
      <cc:Work
         rdf:about="">
        <dc:format>image/svg+xml</dc:format>
        <dc:type
           rdf:resource="http://purl.org/dc/dcmitype/StillImage" />
        <dc:title></dc:title>
      </cc:Work>
    </rdf:RDF>
  </metadata>
  <g
     inkscape:label="Camada 1"
     inkscape:groupmode="layer"
     id="layer1"
     transform="translate(-246.69242,-150.46673)">
    <g
       id="g5908"
       transform="matrix(0.35277777,0,0,-0.35277777,253.04483,153.90339)">
      <path
         d="m 0,0 c -0.02,-0.517 -0.214,-1.152 -0.44,-1.775 -0.212,-0.587 -0.452,-1.166 -0.707,-1.736 -0.218,-0.491 -0.334,-1 -0.341,-1.531 -0.012,-0.923 0.005,-1.848 -0.007,-2.771 -0.006,-0.496 -0.044,-0.991 -0.078,-1.486 -0.019,-0.287 -0.194,-0.457 -0.456,-0.471 -0.237,-0.012 -0.441,0.151 -0.48,0.427 -0.073,0.515 -0.126,1.033 -0.186,1.55 -0.074,0.646 -0.14,1.293 -0.225,1.938 -0.017,0.128 -0.085,0.26 -0.161,0.368 -0.138,0.199 -0.313,0.19 -0.413,-0.029 -0.087,-0.189 -0.153,-0.394 -0.189,-0.599 -0.243,-1.345 -0.474,-2.694 -0.715,-4.04 -0.032,-0.182 -0.083,-0.364 -0.154,-0.533 -0.125,-0.291 -0.314,-0.361 -0.656,-0.277 -0.224,0.056 -0.366,0.26 -0.344,0.528 0.032,0.39 0.078,0.777 0.119,1.166 0.121,1.121 0.244,2.242 0.36,3.363 0.012,0.12 -0.004,0.248 -0.034,0.366 -0.035,0.137 -0.134,0.163 -0.235,0.061 -0.081,-0.084 -0.154,-0.18 -0.21,-0.281 -0.818,-1.446 -1.643,-2.888 -2.439,-4.346 -0.2,-0.366 -0.557,-0.398 -0.815,-0.299 -0.252,0.097 -0.41,0.511 -0.291,0.8 0.193,0.47 0.4,0.934 0.61,1.396 0.485,1.065 0.979,2.127 1.462,3.194 0.059,0.132 0.101,0.284 0.102,0.427 0,0.227 -0.156,0.307 -0.355,0.199 l -0.206,-0.157 c -1.099,-1.112 -2.197,-2.225 -3.293,-3.341 -0.254,-0.259 -0.484,-0.298 -0.732,-0.099 -0.293,0.236 -0.355,0.549 -0.147,0.833 0.223,0.305 0.466,0.596 0.692,0.9 0.871,1.168 1.751,2.33 2.602,3.514 0.409,0.569 0.716,1.201 0.905,1.883 0.025,0.088 0.035,0.183 0.038,0.275 0.012,0.37 -0.165,0.597 -0.535,0.628 C -8.242,0.07 -8.535,0.044 -8.825,0.039 -9.32,0.031 -9.816,0 -10.309,0.02 c -0.352,0.014 -0.674,0.161 -0.945,0.393 -0.12,0.102 -0.231,0.226 -0.178,0.4 0.05,0.166 0.202,0.204 0.355,0.225 l 0.091,0.018 c 1.272,0.104 2.406,0.613 3.535,1.164 0.883,0.431 1.796,0.806 2.712,1.164 0.516,0.202 1.074,0.187 1.613,0.057 C -2.955,3.4 -2.772,3.302 -2.65,3.176 -2.034,2.535 -1.354,1.988 -0.537,1.618 -0.431,1.57 -0.351,1.44 -0.286,1.331 -0.086,0.994 0.005,0.594 0,0"
         style="fill:#0073ab;fill-opacity:1;fill-rule:nonzero;stroke:none"
         id="path5910"
         inkscape:connector-curvature="0" />
    </g>
    <g
       id="g5912"
       transform="matrix(0.35277777,0,0,-0.35277777,250.05793,154.22907)">
      <path
         d="m 0,0 c -0.22,-0.412 -0.395,-0.818 -0.638,-1.176 -0.499,-0.733 -1.033,-1.442 -1.555,-2.159 -0.131,-0.181 -0.238,-0.421 -0.418,-0.512 -0.115,-0.057 -0.263,-0.044 -0.413,-0.031 -0.08,0.007 -0.16,0.013 -0.236,0.01 -0.29,-0.015 -0.58,-0.056 -0.87,-0.061 -0.162,-0.003 -0.34,0.009 -0.482,0.076 -0.593,0.279 -0.955,0.777 -1.196,1.366 -0.336,0.818 -0.594,1.667 -0.691,2.54 -0.126,1.134 -0.621,2.08 -1.25,2.997 -0.591,0.863 -1.131,1.763 -1.69,2.647 -0.085,0.134 -0.138,0.275 -0.07,0.439 0.152,0.368 0.562,0.429 0.841,0.108 0.347,-0.396 0.682,-0.805 1.02,-1.209 0.387,-0.461 0.762,-0.932 1.164,-1.379 0.116,-0.13 0.295,-0.224 0.463,-0.282 0.174,-0.06 0.265,0.025 0.251,0.209 -0.012,0.164 -0.038,0.336 -0.102,0.486 -0.503,1.172 -1.018,2.339 -1.525,3.51 -0.12,0.278 -0.24,0.558 -0.329,0.847 -0.096,0.311 -0.012,0.505 0.215,0.616 0.381,0.186 0.575,0.134 0.774,-0.246 0.638,-1.219 1.265,-2.443 1.9,-3.663 0.088,-0.17 0.186,-0.337 0.302,-0.489 l 0.241,-0.145 0.111,0.259 c 0,0.315 -0.017,0.632 -0.039,0.947 -0.053,0.785 -0.111,1.57 -0.171,2.355 -0.048,0.618 -0.101,1.235 -0.156,1.853 -0.036,0.416 0.154,0.688 0.535,0.748 0.26,0.042 0.61,-0.261 0.671,-0.587 0.068,-0.365 0.132,-0.731 0.191,-1.098 0.195,-1.204 0.386,-2.409 0.581,-3.613 0.026,-0.158 0.05,-0.319 0.1,-0.47 0.043,-0.13 0.131,-0.282 0.283,-0.244 0.099,0.026 0.213,0.157 0.242,0.262 0.085,0.309 0.132,0.629 0.193,0.945 0.25,1.288 0.5,2.576 0.752,3.863 0.055,0.285 0.255,0.44 0.526,0.42 C -0.123,10.112 0.132,9.886 0.123,9.574 0.109,9.115 0.071,8.658 0.04,8.2 -0.004,7.551 -0.063,6.902 -0.093,6.252 -0.132,5.422 -0.151,4.592 -0.171,3.761 -0.173,3.65 -0.221,3.608 -0.31,3.577 -0.737,3.431 -1.168,3.295 -1.589,3.132 -1.984,2.979 -2.399,2.974 -2.807,2.909 -3.337,2.826 -3.739,2.558 -3.893,2.023 -4.05,1.482 -3.88,1.015 -3.473,0.643 c 0.507,-0.461 1.124,-0.678 1.801,-0.691 0.507,-0.009 1.015,0.035 1.523,0.054 z"
         style="fill:#0073ab;fill-opacity:1;fill-rule:nonzero;stroke:none"
         id="path5914"
         inkscape:connector-curvature="0" />
    </g>
    <g
       id="g5916"
       transform="matrix(0.35277777,0,0,-0.35277777,253.39877,153.89471)">
      <path
         d="m 0,0 c -0.031,-0.203 -0.088,-0.569 -0.147,-0.935 l -0.039,-0.123 c -0.051,-0.119 -0.128,-0.212 -0.269,-0.158 -0.139,0.053 -0.163,0.156 -0.121,0.302 0.165,0.561 0.218,1.133 0.077,1.706 -0.055,0.221 -0.144,0.435 -0.235,0.644 -0.058,0.132 -0.071,0.241 0.064,0.32 C -0.524,1.841 -0.434,1.75 -0.371,1.632 -0.127,1.175 -0.015,0.684 0,0"
         style="fill:#0073ab;fill-opacity:1;fill-rule:nonzero;stroke:none"
         id="path5918"
         inkscape:connector-curvature="0" />
    </g>
    <g
       id="g5920"
       transform="matrix(0.35277777,0,0,-0.35277777,247.58341,155.25618)">
      <path
         d="M 0,0 0.2,0.152 0.421,0.006 C 0.575,-0.26 0.695,-0.548 0.855,-0.81 1.123,-1.25 1.505,-1.571 1.967,-1.796 2.097,-1.859 2.198,-1.941 2.12,-2.098 2.044,-2.25 1.919,-2.233 1.787,-2.168 0.923,-1.74 0.385,-1.031 0.045,-0.151 Z"
         style="fill:#0073ab;fill-opacity:1;fill-rule:nonzero;stroke:none"
         id="path5922"
         inkscape:connector-curvature="0" />
    </g>
    <g
       id="g5924"
       transform="matrix(0.35277777,0,0,-0.35277777,247.91375,156.22315)">
      <path
         d="m 0,0 c -0.096,0.046 -0.166,0.072 -0.227,0.11 -0.797,0.505 -1.246,1.257 -1.504,2.141 -0.038,0.132 -0.013,0.257 0.142,0.294 0.153,0.037 0.226,-0.058 0.264,-0.194 0.228,-0.809 0.643,-1.484 1.376,-1.938 L 0.159,0.172 Z"
         style="fill:#0073ab;fill-opacity:1;fill-rule:nonzero;stroke:none"
         id="path5926"
         inkscape:connector-curvature="0" />
    </g>
    <g
       id="g5928"
       transform="matrix(0.35277777,0,0,-0.35277777,253.62095,153.82807)">
      <path
         d="M 0,0 C -0.088,0.366 -0.162,0.709 -0.256,1.047 -0.296,1.186 -0.298,1.299 -0.159,1.359 -0.011,1.424 0.074,1.328 0.127,1.202 0.384,0.588 0.417,-0.047 0.283,-0.692 0.23,-0.95 0.146,-1.204 0.061,-1.455 0.017,-1.585 -0.072,-1.696 -0.234,-1.62 -0.387,-1.548 -0.353,-1.427 -0.315,-1.287 -0.199,-0.86 -0.103,-0.427 0,0"
         style="fill:#0073ab;fill-opacity:1;fill-rule:nonzero;stroke:none"
         id="path5930"
         inkscape:connector-curvature="0" />
    </g>
    <g
       id="g5944"
       transform="matrix(0.35277777,0,0,-0.35277777,253.20033,153.26352)">
      <path
         d="m 0,0 c -0.032,0 -0.068,-0.01 -0.108,-0.033 -0.135,-0.079 -0.122,-0.188 -0.064,-0.321 0.092,-0.209 0.181,-0.422 0.235,-0.643 0.141,-0.573 0.088,-1.145 -0.076,-1.706 -0.043,-0.146 -0.019,-0.25 0.12,-0.302 0.028,-0.011 0.054,-0.016 0.078,-0.016 0.093,0 0.151,0.078 0.191,0.173 l 0.04,0.124 c 0.059,0.365 0.115,0.732 0.146,0.935 -0.014,0.684 -0.126,1.175 -0.37,1.632 C 0.146,-0.071 0.086,0 0,0"
         style="fill:#0073ab;fill-opacity:1;fill-rule:nonzero;stroke:none"
         id="path5946"
         inkscape:connector-curvature="0" />
    </g>
    <g
       id="g5948"
       transform="matrix(0.35277777,0,0,-0.35277777,247.65396,155.20252)">
      <path
         d="m 0,0 -0.2,-0.152 0.045,-0.151 c 0.34,-0.88 0.878,-1.589 1.742,-2.017 0.058,-0.029 0.114,-0.048 0.165,-0.048 0.067,0 0.125,0.032 0.168,0.118 0.078,0.157 -0.023,0.239 -0.153,0.302 -0.462,0.225 -0.844,0.546 -1.112,0.986 -0.16,0.262 -0.28,0.55 -0.434,0.816 z"
         style="fill:#0073ab;fill-opacity:1;fill-rule:nonzero;stroke:none"
         id="path5950"
         inkscape:connector-curvature="0" />
    </g>
    <g
       transform="matrix(0.35277777,0,0,-0.35277777,253.04483,153.90339)"
       id="g6788">
      <path
         inkscape:connector-curvature="0"
         id="path6786"
         style="fill:#0073ab;fill-opacity:1;fill-rule:nonzero;stroke:none"
         d="m 0,0 c -0.02,-0.517 -0.214,-1.152 -0.44,-1.775 -0.212,-0.587 -0.452,-1.166 -0.707,-1.736 -0.218,-0.491 -0.334,-1 -0.341,-1.531 -0.012,-0.923 0.005,-1.848 -0.007,-2.771 -0.006,-0.496 -0.044,-0.991 -0.078,-1.486 -0.019,-0.287 -0.194,-0.457 -0.456,-0.471 -0.237,-0.012 -0.441,0.151 -0.48,0.427 -0.073,0.515 -0.126,1.033 -0.186,1.55 -0.074,0.646 -0.14,1.293 -0.225,1.938 -0.017,0.128 -0.085,0.26 -0.161,0.368 -0.138,0.199 -0.313,0.19 -0.413,-0.029 -0.087,-0.189 -0.153,-0.394 -0.189,-0.599 -0.243,-1.345 -0.474,-2.694 -0.715,-4.04 -0.032,-0.182 -0.083,-0.364 -0.154,-0.533 -0.125,-0.291 -0.314,-0.361 -0.656,-0.277 -0.224,0.056 -0.366,0.26 -0.344,0.528 0.032,0.39 0.078,0.777 0.119,1.166 0.121,1.121 0.244,2.242 0.36,3.363 0.012,0.12 -0.004,0.248 -0.034,0.366 -0.035,0.137 -0.134,0.163 -0.235,0.061 -0.081,-0.084 -0.154,-0.18 -0.21,-0.281 -0.818,-1.446 -1.643,-2.888 -2.439,-4.346 -0.2,-0.366 -0.557,-0.398 -0.815,-0.299 -0.252,0.097 -0.41,0.511 -0.291,0.8 0.193,0.47 0.4,0.934 0.61,1.396 0.485,1.065 0.979,2.127 1.462,3.194 0.059,0.132 0.101,0.284 0.102,0.427 0,0.227 -0.156,0.307 -0.355,0.199 l -0.206,-0.157 c -1.099,-1.112 -2.197,-2.225 -3.293,-3.341 -0.254,-0.259 -0.484,-0.298 -0.732,-0.099 -0.293,0.236 -0.355,0.549 -0.147,0.833 0.223,0.305 0.466,0.596 0.692,0.9 0.871,1.168 1.751,2.33 2.602,3.514 0.409,0.569 0.716,1.201 0.905,1.883 0.025,0.088 0.035,0.183 0.038,0.275 0.012,0.37 -0.165,0.597 -0.535,0.628 C -8.242,0.07 -8.535,0.044 -8.825,0.039 -9.32,0.031 -9.816,0 -10.309,0.02 c -0.352,0.014 -0.674,0.161 -0.945,0.393 -0.12,0.102 -0.231,0.226 -0.178,0.4 0.05,0.166 0.202,0.204 0.355,0.225 l 0.091,0.018 c 1.272,0.104 2.406,0.613 3.535,1.164 0.883,0.431 1.796,0.806 2.712,1.164 0.516,0.202 1.074,0.187 1.613,0.057 C -2.955,3.4 -2.772,3.302 -2.65,3.176 -2.034,2.535 -1.354,1.988 -0.537,1.618 -0.431,1.57 -0.351,1.44 -0.286,1.331 -0.086,0.994 0.005,0.594 0,0" />
    </g>
    <g
       transform="matrix(0.35277777,0,0,-0.35277777,250.05793,154.22907)"
       id="g6792">
      <path
         inkscape:connector-curvature="0"
         id="path6790"
         style="fill:#0073ab;fill-opacity:1;fill-rule:nonzero;stroke:none"
         d="m 0,0 c -0.22,-0.412 -0.395,-0.818 -0.638,-1.176 -0.499,-0.733 -1.033,-1.442 -1.555,-2.159 -0.131,-0.181 -0.238,-0.421 -0.418,-0.512 -0.115,-0.057 -0.263,-0.044 -0.413,-0.031 -0.08,0.007 -0.16,0.013 -0.236,0.01 -0.29,-0.015 -0.58,-0.056 -0.87,-0.061 -0.162,-0.003 -0.34,0.009 -0.482,0.076 -0.593,0.279 -0.955,0.777 -1.196,1.366 -0.336,0.818 -0.594,1.667 -0.691,2.54 -0.126,1.134 -0.621,2.08 -1.25,2.997 -0.591,0.863 -1.131,1.763 -1.69,2.647 -0.085,0.134 -0.138,0.275 -0.07,0.439 0.152,0.368 0.562,0.429 0.841,0.108 0.347,-0.396 0.682,-0.805 1.02,-1.209 0.387,-0.461 0.762,-0.932 1.164,-1.379 0.116,-0.13 0.295,-0.224 0.463,-0.282 0.174,-0.06 0.265,0.025 0.251,0.209 -0.012,0.164 -0.038,0.336 -0.102,0.486 -0.503,1.172 -1.018,2.339 -1.525,3.51 -0.12,0.278 -0.24,0.558 -0.329,0.847 -0.096,0.311 -0.012,0.505 0.215,0.616 0.381,0.186 0.575,0.134 0.774,-0.246 0.638,-1.219 1.265,-2.443 1.9,-3.663 0.088,-0.17 0.186,-0.337 0.302,-0.489 l 0.241,-0.145 0.111,0.259 c 0,0.315 -0.017,0.632 -0.039,0.947 -0.053,0.785 -0.111,1.57 -0.171,2.355 -0.048,0.618 -0.101,1.235 -0.156,1.853 -0.036,0.416 0.154,0.688 0.535,0.748 0.26,0.042 0.61,-0.261 0.671,-0.587 0.068,-0.365 0.132,-0.731 0.191,-1.098 0.195,-1.204 0.386,-2.409 0.581,-3.613 0.026,-0.158 0.05,-0.319 0.1,-0.47 0.043,-0.13 0.131,-0.282 0.283,-0.244 0.099,0.026 0.213,0.157 0.242,0.262 0.085,0.309 0.132,0.629 0.193,0.945 0.25,1.288 0.5,2.576 0.752,3.863 0.055,0.285 0.255,0.44 0.526,0.42 C -0.123,10.112 0.132,9.886 0.123,9.574 0.109,9.115 0.071,8.658 0.04,8.2 -0.004,7.551 -0.063,6.902 -0.093,6.252 -0.132,5.422 -0.151,4.592 -0.171,3.761 -0.173,3.65 -0.221,3.608 -0.31,3.577 -0.737,3.431 -1.168,3.295 -1.589,3.132 -1.984,2.979 -2.399,2.974 -2.807,2.909 -3.337,2.826 -3.739,2.558 -3.893,2.023 -4.05,1.482 -3.88,1.015 -3.473,0.643 c 0.507,-0.461 1.124,-0.678 1.801,-0.691 0.507,-0.009 1.015,0.035 1.523,0.054 z" />
    </g>
    <g
       transform="matrix(0.35277777,0,0,-0.35277777,253.39877,153.89471)"
       id="g6796">
      <path
         inkscape:connector-curvature="0"
         id="path6794"
         style="fill:#0073ab;fill-opacity:1;fill-rule:nonzero;stroke:none"
         d="m 0,0 c -0.031,-0.203 -0.088,-0.569 -0.147,-0.935 l -0.039,-0.123 c -0.051,-0.119 -0.128,-0.212 -0.269,-0.158 -0.139,0.053 -0.163,0.156 -0.121,0.302 0.165,0.561 0.218,1.133 0.077,1.706 -0.055,0.221 -0.144,0.435 -0.235,0.644 -0.058,0.132 -0.071,0.241 0.064,0.32 C -0.524,1.841 -0.434,1.75 -0.371,1.632 -0.127,1.175 -0.015,0.684 0,0" />
    </g>
    <g
       transform="matrix(0.35277777,0,0,-0.35277777,247.58341,155.25618)"
       id="g6800">
      <path
         inkscape:connector-curvature="0"
         id="path6798"
         style="fill:#0073ab;fill-opacity:1;fill-rule:nonzero;stroke:none"
         d="M 0,0 0.2,0.152 0.421,0.006 C 0.575,-0.26 0.695,-0.548 0.855,-0.81 1.123,-1.25 1.505,-1.571 1.967,-1.796 2.097,-1.859 2.198,-1.941 2.12,-2.098 2.044,-2.25 1.919,-2.233 1.787,-2.168 0.923,-1.74 0.385,-1.031 0.045,-0.151 Z" />
    </g>
    <g
       transform="matrix(0.35277777,0,0,-0.35277777,247.91375,156.22315)"
       id="g6804">
      <path
         inkscape:connector-curvature="0"
         id="path6802"
         style="fill:#0073ab;fill-opacity:1;fill-rule:nonzero;stroke:none"
         d="m 0,0 c -0.096,0.046 -0.166,0.072 -0.227,0.11 -0.797,0.505 -1.246,1.257 -1.504,2.141 -0.038,0.132 -0.013,0.257 0.142,0.294 0.153,0.037 0.226,-0.058 0.264,-0.194 0.228,-0.809 0.643,-1.484 1.376,-1.938 L 0.159,0.172 Z" />
    </g>
    <g
       transform="matrix(0.35277777,0,0,-0.35277777,253.62095,153.82807)"
       id="g6808">
      <path
         inkscape:connector-curvature="0"
         id="path6806"
         style="fill:#0073ab;fill-opacity:1;fill-rule:nonzero;stroke:none"
         d="M 0,0 C -0.088,0.366 -0.162,0.709 -0.256,1.047 -0.296,1.186 -0.298,1.299 -0.159,1.359 -0.011,1.424 0.074,1.328 0.127,1.202 0.384,0.588 0.417,-0.047 0.283,-0.692 0.23,-0.95 0.146,-1.204 0.061,-1.455 0.017,-1.585 -0.072,-1.696 -0.234,-1.62 -0.387,-1.548 -0.353,-1.427 -0.315,-1.287 -0.199,-0.86 -0.103,-0.427 0,0" />
    </g>
    <g
       transform="matrix(0.35277777,0,0,-0.35277777,253.20033,153.26352)"
       id="g6812">
      <path
         inkscape:connector-curvature="0"
         id="path6810"
         style="fill:#0073ab;fill-opacity:1;fill-rule:nonzero;stroke:none"
         d="m 0,0 c -0.032,0 -0.068,-0.01 -0.108,-0.033 -0.135,-0.079 -0.122,-0.188 -0.064,-0.321 0.092,-0.209 0.181,-0.422 0.235,-0.643 0.141,-0.573 0.088,-1.145 -0.076,-1.706 -0.043,-0.146 -0.019,-0.25 0.12,-0.302 0.028,-0.011 0.054,-0.016 0.078,-0.016 0.093,0 0.151,0.078 0.191,0.173 l 0.04,0.124 c 0.059,0.365 0.115,0.732 0.146,0.935 -0.014,0.684 -0.126,1.175 -0.37,1.632 C 0.146,-0.071 0.086,0 0,0" />
    </g>
    <g
       transform="matrix(0.35277777,0,0,-0.35277777,247.65396,155.20252)"
       id="g6816">
      <path
         inkscape:connector-curvature="0"
         id="path6814"
         style="fill:#0073ab;fill-opacity:1;fill-rule:nonzero;stroke:none"
         d="m 0,0 -0.2,-0.152 0.045,-0.151 c 0.34,-0.88 0.878,-1.589 1.742,-2.017 0.058,-0.029 0.114,-0.048 0.165,-0.048 0.067,0 0.125,0.032 0.168,0.118 0.078,0.157 -0.023,0.239 -0.153,0.302 -0.462,0.225 -0.844,0.546 -1.112,0.986 -0.16,0.262 -0.28,0.55 -0.434,0.816 z" />
    </g>
  </g>
</svg>
