<svg fill="#A65718" xmlns="http://www.w3.org/2000/svg" viewBox="0 0 48 48"><defs><style>.cls-1{fill-opacity:0;opacity:0;}</style></defs><title>expandir</title><g id="Camada_2" data-name="Camada 2"><g id="Ícones_Outline" data-name="Ícones Outline"><g id="expandir"><path d="M36,25a2,2,0,0,0-2,2v8a2,2,0,0,1-2,2H12a2,2,0,0,1-2-2V15a2,2,0,0,1,2-2h8a2,2,0,0,0,0-4H12a6,6,0,0,0-6,6V35a6,6,0,0,0,6,6H32a6,6,0,0,0,6-6V27A2,2,0,0,0,36,25Z"/><path d="M41,19l-1.41-9.9a2,2,0,0,0-1.7-1.7L28,6a2,2,0,1,0-.57,4l5.94.85L18.59,25.59a2,2,0,1,0,2.83,2.83L36.17,13.66,37,19.6a2,2,0,0,0,2,1.72l.29,0A2,2,0,0,0,41,19Z"/><rect class="cls-1" width="48" height="48"/></g></g></g></svg>