<svg fill="#0071ad" xmlns="http://www.w3.org/2000/svg" viewBox="0 0 48 48"><defs><style>.cls-1{fill-opacity:0;opacity:0;}</style></defs><title>ouvidoria</title><g id="Camada_2" data-name="Camada 2"><g id="Ícones_Outline" data-name="Ícones Outline"><g id="ouvidoria"><path d="M38,7H10a5.82,5.82,0,0,0-6,5.6V29.33A5.85,5.85,0,0,0,10,35H27.08l5.51,5.43A2,2,0,0,0,36,39V35h2a5.85,5.85,0,0,0,6-5.67V12.61A5.75,5.75,0,0,0,38,7Zm2,22.33A1.86,1.86,0,0,1,38,31H34a2,2,0,0,0-2,2v1.23l-2.69-2.65A2,2,0,0,0,27.9,31H10a1.86,1.86,0,0,1-2-1.67V12.6A1.82,1.82,0,0,1,10,11H38a1.82,1.82,0,0,1,2,1.61Z"/><circle cx="16" cy="21" r="2"/><circle cx="24" cy="21" r="2"/><circle cx="32" cy="21" r="2"/><rect class="cls-1" width="48" height="48"/></g></g></g></svg>