<svg fill="#A65718" xmlns="http://www.w3.org/2000/svg" viewBox="0 0 48 48">
    <defs>
        <style>.cls-1{fill-opacity:0;opacity:0;}</style>
    </defs>
    <title>telefone</title>
    <g id="Camada_2" data-name="Camada 2">
        <g id="Ícones_Outline" data-name="Ícones Outline">
            <g id="telefone">
                <path d="M31.38,5.26a4.09,4.09,0,0,0-5.3,2.1l-2.34,5.16a4.08,4.08,0,0,0,.55,4.29,12.78,12.78,0,0,0,2,1.8c.24.19.56.44.81.65-.82,2.18-5.67,7-7.84,7.84-.21-.25-.46-.57-.65-.81a12.78,12.78,0,0,0-1.8-2,4.07,4.07,0,0,0-4.29-.55L7.37,26.08a4.09,4.09,0,0,0-2.1,5.3c3.35,8.12,4.79,9.06,6.22,9.06h.21A30.7,30.7,0,0,0,40.44,11.69C40.51,10.19,39.9,8.77,31.38,5.26ZM12.16,36.4A37,37,0,0,1,9,29.86.1.1,0,0,1,9,29.73l5.16-2.34h0l.06,0a11.29,11.29,0,0,1,1.18,1.37c1,1.32,1.92,2.46,3.31,2.46,4.07,0,12.44-8.37,12.44-12.44,0-1.39-1.14-2.28-2.46-3.31a11.29,11.29,0,0,1-1.37-1.18.1.1,0,0,1,0-.11L29.73,9A.1.1,0,0,1,29.86,9a37,37,0,0,1,6.53,3.2A27.06,27.06,0,0,1,12.16,36.4Z"/>
                <rect class="cls-1" width="48" height="48"/>
            </g>
        </g>
    </g>
</svg>