<svg fill="#A65718" xmlns="http://www.w3.org/2000/svg" viewBox="0 0 48 48"><defs><style>.cls-1{fill-opacity:0;opacity:0;}</style></defs><title>duvida</title><g id="Camada_2" data-name="Camada 2"><g id="Ícones_Outline" data-name="Ícones Outline"><g id="duvida"><path d="M34,4H14a6,6,0,0,0-6,6V28.36c0,3,2.39,7.64,6,7.64h2v5a2,2,0,0,0,3.51,1.31L25,36h9c3.61,0,6-4.6,6-7.64V10A6,6,0,0,0,34,4Zm2,24.36C36,30,34.64,32,34,32H24.1a2,2,0,0,0-1.51.69l-2.59,3V34a2,2,0,0,0-2-2H14c-.64,0-2-2-2-3.64V10a2,2,0,0,1,2-2H34a2,2,0,0,1,2,2Z"/><path d="M24,10.86A5.11,5.11,0,0,0,18.73,16h4s.57-1.14,1.27-1.14a1.33,1.33,0,0,1,1.27,1.34c0,.62-.55,1.21-1.39,2A4.54,4.54,0,0,0,22,21.44V23h4V21.75c.15-.17.41-.41.61-.6,1.06-1,2.66-2.56,2.66-5A5.34,5.34,0,0,0,24,10.86Z"/><circle cx="24" cy="27" r="2"/><rect class="cls-1" width="48" height="48"/></g></g></g></svg>