<svg fill="#0073ab" xmlns="http://www.w3.org/2000/svg" viewBox="0 0 48 48"><defs><style>.cls-1{opacity:0;}</style></defs><title>teclado</title><g id="Camada_2" data-name="Camada 2"><g id="Ícones_Outline" data-name="Ícones Outline"><g id="teclado"><path d="M38,10H10a6,6,0,0,0-6,6V32a6,6,0,0,0,6,6H38a6,6,0,0,0,6-6V16A6,6,0,0,0,38,10Zm2,22a2,2,0,0,1-2,2H10a2,2,0,0,1-2-2V16a2,2,0,0,1,2-2H38a2,2,0,0,1,2,2Z"/><circle cx="13" cy="20" r="2"/><circle cx="20" cy="20" r="2"/><circle cx="28" cy="20" r="2"/><circle cx="35" cy="20" r="2"/><circle cx="13" cy="28" r="2"/><path d="M28,26H20a2,2,0,0,0,0,4h8a2,2,0,0,0,0-4Z"/><circle cx="35" cy="28" r="2"/><rect class="cls-1" width="48" height="48"/></g></g></g></svg>