<svg fill="#0071ad" xmlns="http://www.w3.org/2000/svg" viewBox="0 0 48 48"><defs><style>.cls-1{fill-opacity:0;opacity:0;}</style></defs><title>denuncia</title><g id="Camada_2" data-name="Camada 2"><g id="Ícones_Outline" data-name="Ícones Outline"><g id="denuncia"><path d="M23.42,20.41a2,2,0,0,0,.36-2.34A8.54,8.54,0,0,0,23.4,6.73,8.57,8.57,0,0,0,10.63,18.14,12.53,12.53,0,0,0,4.4,26.56a3.8,3.8,0,0,0,.73,3A3.63,3.63,0,0,0,7.81,31H16a2,2,0,0,0,0-4H8.48c.64-3,2.3-4.34,4.54-5.44a3.59,3.59,0,0,0,.9-5.7A4.6,4.6,0,0,1,17.3,8a4.66,4.66,0,0,1,4.45,4.74,4.37,4.37,0,0,1-1.32,3.05,2.88,2.88,0,0,0-.94,2.07,3.69,3.69,0,0,0,1.1,2.54A2,2,0,0,0,23.42,20.41Z"/><path d="M40.41,37.59,36.23,33.4a8,8,0,1,0-2.57,3.09l3.93,3.93a2,2,0,0,0,2.83-2.83ZM29,34a4,4,0,1,1,4-4A4,4,0,0,1,29,34Z"/><rect class="cls-1" width="48" height="48"/></g></g></g></svg>